# xmcd
#
# Track frame offsets: 
#        150
#        24912
#        45120
#        66772
#        85029
#        106401
#        130509
#
# Disc length: 2131 seconds
#
# Revision: 0
# Processed by: cddbd v1.5PL3 Copyright (c) Steve Scherf et al.
# Submitted via: ExactAudioCopy v0.95a4
#
DISCID=44085107
DTITLE=Willy DeVill Trio - Live In Berlin
DYEAR=2002
DGENRE=Blues
TTITLE0=Since I Met You Baby
TTITLE1=Carmelita
TTITLE2=Heaven Stood Still
TTITLE3=I'm Blue So Blue
TTITLE4=Keep A Knockin'
TTITLE5=Shake, Rattle and Roll
TTITLE6=Ramblin' Blues
EXTD=
EXTT0=
EXTT1=
EXTT2=
EXTT3=
EXTT4=
EXTT5=
EXTT6=
PLAYORDER=
